<svg width="1024" height="1024" viewBox="0 0 1024 1024" fill="none" xmlns="http://www.w3.org/2000/svg">
  <defs>
    <linearGradient id="bg" x1="120" y1="80" x2="920" y2="960" gradientUnits="userSpaceOnUse">
      <stop offset="0" stop-color="#7C8CFF"/>
      <stop offset="0.52" stop-color="#5E7CFF"/>
      <stop offset="1" stop-color="#8B5CFF"/>
    </linearGradient>
    <linearGradient id="card" x1="280" y1="250" x2="760" y2="820" gradientUnits="userSpaceOnUse">
      <stop offset="0" stop-color="white" stop-opacity="0.96"/>
      <stop offset="1" stop-color="#EAF0FF" stop-opacity="0.9"/>
    </linearGradient>
    <filter id="shadow" x="130" y="150" width="780" height="780" filterUnits="userSpaceOnUse">
      <feDropShadow dx="0" dy="32" stdDeviation="38" flood-color="#24306B" flood-opacity="0.3"/>
    </filter>
    <filter id="softShadow" x="250" y="350" width="520" height="410" filterUnits="userSpaceOnUse">
      <feDropShadow dx="0" dy="12" stdDeviation="16" flood-color="#24306B" flood-opacity="0.12"/>
    </filter>
  </defs>
  <rect x="96" y="96" width="832" height="832" rx="210" fill="url(#bg)"/>
  <path d="M188 306C222 180 328 128 512 128C734 128 850 244 896 442C842 296 724 214 526 214C336 214 244 252 188 306Z" fill="white" fill-opacity="0.16"/>
  <g filter="url(#shadow)">
    <rect x="264" y="220" width="496" height="604" rx="96" fill="url(#card)"/>
    <rect x="344" y="176" width="336" height="120" rx="60" fill="#F7F9FF"/>
    <rect x="408" y="142" width="208" height="86" rx="43" fill="#DDE6FF"/>
    <rect x="448" y="166" width="128" height="38" rx="19" fill="#B9C8FF"/>
  </g>
  <g filter="url(#softShadow)">
    <rect x="332" y="380" width="360" height="86" rx="32" fill="#5E7CFF" fill-opacity="0.18"/>
    <rect x="332" y="504" width="360" height="86" rx="32" fill="#5E7CFF" fill-opacity="0.24"/>
    <rect x="332" y="628" width="360" height="86" rx="32" fill="#5E7CFF" fill-opacity="0.18"/>
  </g>
  <circle cx="380" cy="423" r="18" fill="#5E7CFF"/>
  <circle cx="380" cy="547" r="18" fill="#8B5CFF"/>
  <circle cx="380" cy="671" r="18" fill="#5E7CFF"/>
  <rect x="424" y="407" width="202" height="22" rx="11" fill="#34406B" fill-opacity="0.72"/>
  <rect x="424" y="531" width="248" height="22" rx="11" fill="#34406B" fill-opacity="0.72"/>
  <rect x="424" y="655" width="176" height="22" rx="11" fill="#34406B" fill-opacity="0.72"/>
  <path d="M732 276L748 316L788 332L748 348L732 388L716 348L676 332L716 316L732 276Z" fill="white" fill-opacity="0.82"/>
</svg>
